<svg width="1024" height="1024" viewBox="0 0 1024 1024" fill="none" xmlns="http://www.w3.org/2000/svg">
<rect x="25" y="25" width="974" height="974" rx="175" fill="#2563EB" stroke="#1E40AF" stroke-width="50"/>
<path d="M340 727L107.971 953L59 898.966L285.28 669.32V639.769L286.969 635.548L290.346 618.662L295.412 600.088L326.653 500.462L349.449 437.985L363.803 400.836L373.935 377.196L383.223 359.466L394.199 340.048L407.708 319.785L423.751 298.677L501.429 220.159L585.862 139.951L600.215 129.82L611.192 124.754L622.168 119.689L631.456 118H652.564L661.852 119.689L676.205 124.754L688.026 129.82L698.158 136.574L846.76 270.816L856.892 282.636L865.335 295.3L871.245 307.12L874.623 318.096L878 331.605V356.933L876.311 365.376L872.934 378.885L869.557 386.483L866.179 393.238L829.029 439.673L774.992 498.773L724.332 553.652L691.403 584.047L662.696 606.842L607.814 636.392L541.957 664.254L456.679 698.025L395.043 720.821L374.779 725.887H348.605L340 727Z" fill="white" stroke="#1E40AF" stroke-width="50"/>
<rect x="72" y="894.678" width="320.615" height="67.2789" transform="rotate(-45.1036 72 894.678)" fill="#1E40AF"/>
</svg>
